STARTFONT 2.1
COMMENT +
COMMENT  Copyright 1984-1989, 1994 Adobe Systems Incorporated.
COMMENT  Copyright 1988, 1994 Digital Equipment Corporation.
COMMENT  Copyright 1996 BIZNET Poland, Inc.
COMMENT
COMMENT  Permission to use, copy, modify, distribute and sell this software
COMMENT  and its documentation for any purpose and without fee is hereby
COMMENT  granted, provided that the above copyright notices appear in all
COMMENT  copies and that both those copyright notices and this permission
COMMENT  notice appear in supporting documentation, and that the names of
COMMENT  Adobe Systems and Digital Equipment Corporation not be used in
COMMENT  advertising or publicity pertaining to distribution of the software
COMMENT  without specific, written prior permission.  Adobe Systems and
COMMENT  Digital Equipment Corporation make no representations about the
COMMENT  suitability of this software for any purpose.  It is provided "as
COMMENT  is" without express or implied warranty.
COMMENT -
FONT -BIZNET-Courier-Medium-O-Normal--14-100-100-100-M-90-ISO8859-2
SIZE 10 100 100
FONTBOUNDINGBOX 10 13 -1 -3
STARTPROPERTIES 25
FOUNDRY "BIZNET"
FAMILY_NAME "Courier"
WEIGHT_NAME "Medium"
SLANT "O"
SETWIDTH_NAME "Normal"
ADD_STYLE_NAME ""
PIXEL_SIZE 14
POINT_SIZE 100
RESOLUTION_X 100
RESOLUTION_Y 100
SPACING "M"
AVERAGE_WIDTH 90
CHARSET_REGISTRY "ISO8859"
CHARSET_ENCODING "2"
CAP_HEIGHT 9
X_HEIGHT 7
FONT_ASCENT 11
FONT_DESCENT 3
FACE_NAME "Courier Oblique"
DEFAULT_CHAR 32
RELATIVE_SETWIDTH 50
RELATIVE_WEIGHT 50
CHARSET_COLLECTIONS "ASCII ISO8859-2"
COPYRIGHT "Copyright (c) 1984, 1987 Adobe Systems Incorporated. All Rights Reserved. Copyright (c) 1988, 1991 Digital Equipment Corporation. All Rights Reserved. Copyright (c) 1996 BIZNET Poland, Inc. All Rights Reserved."
NOTICE "The name "BIZNET" is a registered trademark of BIZNET Poland, Inc."
ENDPROPERTIES
CHARS 190
STARTCHAR space
ENCODING 32
SWIDTH 600 0
DWIDTH 9 0
BBX 1 1 0 0
BITMAP
00
ENDCHAR
STARTCHAR exclam
ENCODING 33
SWIDTH 600 0
DWIDTH 9 0
BBX 5 9 2 0
BITMAP
18
18
10
30
20
20
00
C0
C0
ENDCHAR
STARTCHAR quotedbl
ENCODING 34
SWIDTH 600 0
DWIDTH 9 0
BBX 5 4 3 6
BITMAP
D8
D8
90
90
ENDCHAR
STARTCHAR numbersign
ENCODING 35
SWIDTH 600 0
DWIDTH 9 0
BBX 7 11 1 -1
BITMAP
14
14
14
7E
28
28
FC
50
50
50
50
ENDCHAR
STARTCHAR dollar
ENCODING 36
SWIDTH 600 0
DWIDTH 9 0
BBX 7 11 1 -1
BITMAP
08
1E
22
20
18
04
84
88
70
20
20
ENDCHAR
STARTCHAR percent
ENCODING 37
SWIDTH 600 0
DWIDTH 9 0
BBX 8 10 0 0
BITMAP
30
48
48
33
0C
30
CC
12
12
0C
ENDCHAR
STARTCHAR ampersand
ENCODING 38
SWIDTH 600 0
DWIDTH 9 0
BBX 6 8 1 0
BITMAP
1C
20
20
20
54
88
98
6C
ENDCHAR
STARTCHAR quoteright
ENCODING 39
SWIDTH 600 0
DWIDTH 9 0
BBX 3 4 3 6
BITMAP
60
60
C0
80
ENDCHAR
STARTCHAR parenleft
ENCODING 40
SWIDTH 600 0
DWIDTH 9 0
BBX 5 13 3 -3
BITMAP
08
10
20
40
40
80
80
80
80
80
40
40
20
ENDCHAR
STARTCHAR parenright
ENCODING 41
SWIDTH 600 0
DWIDTH 9 0
BBX 5 13 1 -3
BITMAP
20
10
10
08
08
08
08
08
10
10
20
40
80
ENDCHAR
STARTCHAR asterisk
ENCODING 42
SWIDTH 600 0
DWIDTH 9 0
BBX 6 6 2 3
BITMAP
10
10
FC
30
50
90
ENDCHAR
STARTCHAR plus
ENCODING 43
SWIDTH 600 0
DWIDTH 9 0
BBX 6 7 2 1
BITMAP
10
10
10
FC
20
20
20
ENDCHAR
STARTCHAR comma
ENCODING 44
SWIDTH 600 0
DWIDTH 9 0
BBX 3 4 2 -2
BITMAP
60
60
C0
80
ENDCHAR
STARTCHAR minus
ENCODING 45
SWIDTH 600 0
DWIDTH 9 0
BBX 6 1 2 4
BITMAP
FC
ENDCHAR
STARTCHAR period
ENCODING 46
SWIDTH 600 0
DWIDTH 9 0
BBX 2 2 3 0
BITMAP
C0
C0
ENDCHAR
STARTCHAR slash
ENCODING 47
SWIDTH 600 0
DWIDTH 9 0
BBX 6 12 1 -2
BITMAP
04
04
08
08
10
10
20
20
40
40
80
80
ENDCHAR
STARTCHAR zero
ENCODING 48
SWIDTH 600 0
DWIDTH 9 0
BBX 7 10 1 0
BITMAP
1C
22
42
42
82
82
84
84
88
70
ENDCHAR
STARTCHAR one
ENCODING 49
SWIDTH 600 0
DWIDTH 9 0
BBX 5 10 1 0
BITMAP
08
78
08
10
10
10
10
20
20
F8
ENDCHAR
STARTCHAR two
ENCODING 50
SWIDTH 600 0
DWIDTH 9 0
BBX 7 10 1 0
BITMAP
1C
22
22
02
04
08
10
20
42
FC
ENDCHAR
STARTCHAR three
ENCODING 51
SWIDTH 600 0
DWIDTH 9 0
BBX 7 10 1 0
BITMAP
1C
22
02
04
38
08
04
04
88
70
ENDCHAR
STARTCHAR four
ENCODING 52
SWIDTH 600 0
DWIDTH 9 0
BBX 6 10 1 0
BITMAP
0C
14
24
24
48
48
88
FC
10
38
ENDCHAR
STARTCHAR five
ENCODING 53
SWIDTH 600 0
DWIDTH 9 0
BBX 7 10 1 0
BITMAP
3E
20
20
40
78
04
04
04
88
70
ENDCHAR
STARTCHAR six
ENCODING 54
SWIDTH 600 0
DWIDTH 9 0
BBX 6 10 2 0
BITMAP
1C
60
40
B8
C4
84
84
84
88
70
ENDCHAR
STARTCHAR seven
ENCODING 55
SWIDTH 600 0
DWIDTH 9 0
BBX 6 10 2 0
BITMAP
7C
84
08
08
10
10
20
20
40
40
ENDCHAR
STARTCHAR eight
ENCODING 56
SWIDTH 600 0
DWIDTH 9 0
BBX 6 10 1 0
BITMAP
38
44
44
44
78
84
84
84
88
70
ENDCHAR
STARTCHAR nine
ENCODING 57
SWIDTH 600 0
DWIDTH 9 0
BBX 6 10 1 0
BITMAP
38
44
84
84
8C
74
04
08
18
E0
ENDCHAR
STARTCHAR colon
ENCODING 58
SWIDTH 600 0
DWIDTH 9 0
BBX 4 7 2 0
BITMAP
30
30
00
00
00
C0
C0
ENDCHAR
STARTCHAR semicolon
ENCODING 59
SWIDTH 600 0
DWIDTH 9 0
BBX 5 9 1 -2
BITMAP
18
18
00
00
00
60
60
C0
80
ENDCHAR
STARTCHAR less
ENCODING 60
SWIDTH 600 0
DWIDTH 9 0
BBX 7 7 1 1
BITMAP
06
18
60
80
40
20
10
ENDCHAR
STARTCHAR equal
ENCODING 61
SWIDTH 600 0
DWIDTH 9 0
BBX 7 3 1 3
BITMAP
7E
00
FC
ENDCHAR
STARTCHAR greater
ENCODING 62
SWIDTH 600 0
DWIDTH 9 0
BBX 7 7 1 1
BITMAP
10
08
04
02
0C
30
C0
ENDCHAR
STARTCHAR question
ENCODING 63
SWIDTH 600 0
DWIDTH 9 0
BBX 6 9 2 0
BITMAP
78
44
04
0C
38
40
00
C0
C0
ENDCHAR
STARTCHAR at
ENCODING 64
SWIDTH 600 0
DWIDTH 9 0
BBX 7 9 1 0
BITMAP
1E
22
4E
52
A4
A4
9E
80
78
ENDCHAR
STARTCHAR A
ENCODING 65
SWIDTH 600 0
DWIDTH 9 0
BBX 8 9 0 0
BITMAP
1E
06
0A
0A
12
3E
22
42
EF
ENDCHAR
STARTCHAR B
ENCODING 66
SWIDTH 600 0
DWIDTH 9 0
BBX 8 9 0 0
BITMAP
3E
11
11
22
3C
22
42
44
F8
ENDCHAR
STARTCHAR C
ENCODING 67
SWIDTH 600 0
DWIDTH 9 0
BBX 7 9 1 0
BITMAP
1E
62
42
80
80
80
84
CC
70
ENDCHAR
STARTCHAR D
ENCODING 68
SWIDTH 600 0
DWIDTH 9 0
BBX 8 9 0 0
BITMAP
3E
13
11
21
21
21
42
46
F8
ENDCHAR
STARTCHAR E
ENCODING 69
SWIDTH 600 0
DWIDTH 9 0
BBX 9 9 0 0
BITMAP
3F80
1100
1100
2400
3C00
2400
4100
4200
FE00
ENDCHAR
STARTCHAR F
ENCODING 70
SWIDTH 600 0
DWIDTH 9 0
BBX 9 9 0 0
BITMAP
3F80
1100
1100
2400
3C00
2400
4000
4000
F000
ENDCHAR
STARTCHAR G
ENCODING 71
SWIDTH 600 0
DWIDTH 9 0
BBX 7 9 1 0
BITMAP
1E
62
42
80
80
9E
84
CC
70
ENDCHAR
STARTCHAR H
ENCODING 72
SWIDTH 600 0
DWIDTH 9 0
BBX 9 9 0 0
BITMAP
3B80
1100
1100
2200
3E00
2200
4400
4400
EE00
ENDCHAR
STARTCHAR I
ENCODING 73
SWIDTH 600 0
DWIDTH 9 0
BBX 7 9 1 0
BITMAP
3E
08
08
10
10
10
20
20
F8
ENDCHAR
STARTCHAR J
ENCODING 74
SWIDTH 600 0
DWIDTH 9 0
BBX 9 9 0 0
BITMAP
1F80
0200
0200
0400
0400
4400
8800
8800
7000
ENDCHAR
STARTCHAR K
ENCODING 75
SWIDTH 600 0
DWIDTH 9 0
BBX 9 9 0 0
BITMAP
3B80
1100
1200
2400
3800
2400
4400
4400
E600
ENDCHAR
STARTCHAR L
ENCODING 76
SWIDTH 600 0
DWIDTH 9 0
BBX 8 9 0 0
BITMAP
3E
08
08
10
10
11
21
22
FE
ENDCHAR
STARTCHAR M
ENCODING 77
SWIDTH 600 0
DWIDTH 9 0
BBX 10 9 0 0
BITMAP
30C0
1180
1280
2A80
2D00
2900
4200
4200
E700
ENDCHAR
STARTCHAR N
ENCODING 78
SWIDTH 600 0
DWIDTH 9 0
BBX 10 9 0 0
BITMAP
71C0
1080
1080
2900
2900
2500
4500
4200
F200
ENDCHAR
STARTCHAR O
ENCODING 79
SWIDTH 600 0
DWIDTH 9 0
BBX 7 9 1 0
BITMAP
1C
66
42
82
82
82
84
CC
70
ENDCHAR
STARTCHAR P
ENCODING 80
SWIDTH 600 0
DWIDTH 9 0
BBX 8 9 0 0
BITMAP
3E
11
11
21
22
3C
40
40
F8
ENDCHAR
STARTCHAR Q
ENCODING 81
SWIDTH 600 0
DWIDTH 9 0
BBX 7 11 1 -2
BITMAP
1C
66
42
82
82
82
84
CC
30
60
9C
ENDCHAR
STARTCHAR R
ENCODING 82
SWIDTH 600 0
DWIDTH 9 0
BBX 8 9 0 0
BITMAP
3E
11
11
21
22
3C
44
42
F3
ENDCHAR
STARTCHAR S
ENCODING 83
SWIDTH 600 0
DWIDTH 9 0
BBX 8 9 0 0
BITMAP
1D
33
22
20
1C
02
42
C6
BC
ENDCHAR
STARTCHAR T
ENCODING 84
SWIDTH 600 0
DWIDTH 9 0
BBX 9 9 1 0
BITMAP
7F80
4880
8900
9100
1000
1000
2000
2000
F800
ENDCHAR
STARTCHAR U
ENCODING 85
SWIDTH 600 0
DWIDTH 9 0
BBX 8 9 1 0
BITMAP
77
22
22
44
44
44
88
88
70
ENDCHAR
STARTCHAR V
ENCODING 86
SWIDTH 600 0
DWIDTH 9 0
BBX 9 9 1 0
BITMAP
E780
4100
4100
4200
2400
2400
2800
3000
3000
ENDCHAR
STARTCHAR W
ENCODING 87
SWIDTH 600 0
DWIDTH 9 0
BBX 10 9 0 0
BITMAP
E1C0
4080
4880
4900
5500
5500
6600
6600
4400
ENDCHAR
STARTCHAR X
ENCODING 88
SWIDTH 600 0
DWIDTH 9 0
BBX 9 9 0 0
BITMAP
3B80
1100
1200
0C00
0800
1800
2400
4400
EE00
ENDCHAR
STARTCHAR Y
ENCODING 89
SWIDTH 600 0
DWIDTH 9 0
BBX 8 9 1 0
BITMAP
77
22
24
28
10
10
20
20
F8
ENDCHAR
STARTCHAR Z
ENCODING 90
SWIDTH 600 0
DWIDTH 9 0
BBX 7 9 1 0
BITMAP
3E
42
44
08
10
20
44
84
F8
ENDCHAR
STARTCHAR bracketleft
ENCODING 91
SWIDTH 600 0
DWIDTH 9 0
BBX 5 13 2 -3
BITMAP
38
20
20
20
40
40
40
40
40
80
80
80
E0
ENDCHAR
STARTCHAR backslash
ENCODING 92
SWIDTH 600 0
DWIDTH 9 0
BBX 6 12 1 -2
BITMAP
80
80
40
40
20
20
10
10
08
08
04
04
ENDCHAR
STARTCHAR bracketright
ENCODING 93
SWIDTH 600 0
DWIDTH 9 0
BBX 5 13 2 -3
BITMAP
38
08
08
08
10
10
10
10
10
20
20
20
E0
ENDCHAR
STARTCHAR asciicircum
ENCODING 94
SWIDTH 600 0
DWIDTH 9 0
BBX 6 4 2 5
BITMAP
18
28
44
84
ENDCHAR
STARTCHAR underscore
ENCODING 95
SWIDTH 600 0
DWIDTH 9 0
BBX 9 1 -1 -3
BITMAP
FF80
ENDCHAR
STARTCHAR quoteleft
ENCODING 96
SWIDTH 600 0
DWIDTH 9 0
BBX 3 4 4 6
BITMAP
C0
C0
60
20
ENDCHAR
STARTCHAR a
ENCODING 97
SWIDTH 600 0
DWIDTH 9 0
BBX 6 7 1 0
BITMAP
38
44
04
78
88
88
74
ENDCHAR
STARTCHAR b
ENCODING 98
SWIDTH 600 0
DWIDTH 9 0
BBX 8 10 0 0
BITMAP
30
10
10
16
29
31
21
61
62
DC
ENDCHAR
STARTCHAR c
ENCODING 99
SWIDTH 600 0
DWIDTH 9 0
BBX 7 7 1 0
BITMAP
1E
62
42
80
80
8C
70
ENDCHAR
STARTCHAR d
ENCODING 100
SWIDTH 600 0
DWIDTH 9 0
BBX 7 10 1 0
BITMAP
06
02
02
34
4C
84
84
88
98
6C
ENDCHAR
STARTCHAR e
ENCODING 101
SWIDTH 600 0
DWIDTH 9 0
BBX 7 7 1 0
BITMAP
1C
62
42
FE
80
8C
70
ENDCHAR
STARTCHAR f
ENCODING 102
SWIDTH 600 0
DWIDTH 9 0
BBX 9 10 1 0
BITMAP
0780
0800
0800
3E00
1000
1000
1000
2000
2000
FC00
ENDCHAR
STARTCHAR g
ENCODING 103
SWIDTH 600 0
DWIDTH 9 0
BBX 8 10 0 -3
BITMAP
19
26
42
42
44
4C
34
04
88
70
ENDCHAR
STARTCHAR h
ENCODING 104
SWIDTH 600 0
DWIDTH 9 0
BBX 7 10 0 0
BITMAP
30
10
10
1C
32
22
22
44
44
EE
ENDCHAR
STARTCHAR i
ENCODING 105
SWIDTH 600 0
DWIDTH 9 0
BBX 5 10 2 0
BITMAP
08
08
00
70
10
10
20
20
20
F8
ENDCHAR
STARTCHAR j
ENCODING 106
SWIDTH 600 0
DWIDTH 9 0
BBX 8 13 -1 -3
BITMAP
01
01
00
1E
02
02
02
04
04
04
08
08
F0
ENDCHAR
STARTCHAR k
ENCODING 107
SWIDTH 600 0
DWIDTH 9 0
BBX 8 10 0 0
BITMAP
30
10
10
17
24
28
30
48
44
CE
ENDCHAR
STARTCHAR l
ENCODING 108
SWIDTH 600 0
DWIDTH 9 0
BBX 6 10 1 0
BITMAP
38
08
08
10
10
10
10
20
20
FC
ENDCHAR
STARTCHAR m
ENCODING 109
SWIDTH 600 0
DWIDTH 9 0
BBX 9 7 0 0
BITMAP
6D80
3680
2480
2480
4900
4900
ED80
ENDCHAR
STARTCHAR n
ENCODING 110
SWIDTH 600 0
DWIDTH 9 0
BBX 8 7 0 0
BITMAP
6E
31
21
21
42
42
E7
ENDCHAR
STARTCHAR o
ENCODING 111
SWIDTH 600 0
DWIDTH 9 0
BBX 7 7 1 0
BITMAP
1C
62
42
82
84
8C
70
ENDCHAR
STARTCHAR p
ENCODING 112
SWIDTH 600 0
DWIDTH 9 0
BBX 9 10 -1 -3
BITMAP
3700
1880
1080
1080
2100
3300
2C00
4000
4000
F000
ENDCHAR
STARTCHAR q
ENCODING 113
SWIDTH 600 0
DWIDTH 9 0
BBX 8 10 1 -3
BITMAP
1B
66
42
82
84
8C
74
08
08
3C
ENDCHAR
STARTCHAR r
ENCODING 114
SWIDTH 600 0
DWIDTH 9 0
BBX 8 7 0 0
BITMAP
37
18
10
10
20
20
FC
ENDCHAR
STARTCHAR s
ENCODING 115
SWIDTH 600 0
DWIDTH 9 0
BBX 7 7 0 0
BITMAP
1E
22
20
18
04
84
F8
ENDCHAR
STARTCHAR t
ENCODING 116
SWIDTH 600 0
DWIDTH 9 0
BBX 7 9 1 0
BITMAP
10
10
FE
20
20
40
40
44
38
ENDCHAR
STARTCHAR u
ENCODING 117
SWIDTH 600 0
DWIDTH 9 0
BBX 6 7 1 0
BITMAP
CC
44
44
88
88
98
6C
ENDCHAR
STARTCHAR v
ENCODING 118
SWIDTH 600 0
DWIDTH 9 0
BBX 8 7 1 0
BITMAP
E7
42
44
44
28
28
30
ENDCHAR
STARTCHAR w
ENCODING 119
SWIDTH 600 0
DWIDTH 9 0
BBX 10 7 0 0
BITMAP
E1C0
4880
4900
5900
6600
6600
4400
ENDCHAR
STARTCHAR x
ENCODING 120
SWIDTH 600 0
DWIDTH 9 0
BBX 8 7 0 0
BITMAP
77
22
14
18
28
44
EE
ENDCHAR
STARTCHAR y
ENCODING 121
SWIDTH 600 0
DWIDTH 9 0
BBX 9 10 0 -3
BITMAP
7380
2100
2200
1400
1400
0800
1000
1000
2000
F000
ENDCHAR
STARTCHAR z
ENCODING 122
SWIDTH 600 0
DWIDTH 9 0
BBX 7 7 1 0
BITMAP
7E
44
08
10
20
44
FC
ENDCHAR
STARTCHAR braceleft
ENCODING 123
SWIDTH 600 0
DWIDTH 9 0
BBX 5 13 3 -3
BITMAP
18
20
20
20
40
80
40
40
40
80
80
80
60
ENDCHAR
STARTCHAR bar
ENCODING 124
SWIDTH 600 0
DWIDTH 9 0
BBX 3 11 3 -2
BITMAP
20
20
20
40
40
40
40
80
80
80
80
ENDCHAR
STARTCHAR braceright
ENCODING 125
SWIDTH 600 0
DWIDTH 9 0
BBX 5 13 1 -3
BITMAP
30
08
08
10
10
08
10
20
20
20
20
20
C0
ENDCHAR
STARTCHAR asciitilde
ENCODING 126
SWIDTH 600 0
DWIDTH 9 0
BBX 7 2 1 3
BITMAP
72
9C
ENDCHAR
STARTCHAR Aogonek
ENCODING 161
SWIDTH 600 0
DWIDTH 9 0
BBX 8 12 0 -3
BITMAP
1E
06
0A
0A
12
3E
22
42
EF
02
04
07
ENDCHAR
STARTCHAR breve
ENCODING 162
SWIDTH 600 0
DWIDTH 9 0
BBX 4 2 2 7
BITMAP
90
E0
ENDCHAR
STARTCHAR Lslash
ENCODING 163
SWIDTH 600 0
DWIDTH 9 0
BBX 8 9 0 0
BITMAP
3E
08
08
1C
70
11
21
22
FE
ENDCHAR
STARTCHAR currency
ENCODING 164
SWIDTH 600 0
DWIDTH 9 0
BBX 7 6 1 1
BITMAP
66
3C
44
44
78
CC
ENDCHAR
STARTCHAR Lcaron
ENCODING 165
SWIDTH 600 0
DWIDTH 9 0
BBX 9 9 0 0
BITMAP
3E80
0880
0900
1100
1000
1100
2100
2200
FE00
ENDCHAR
STARTCHAR Sacute
ENCODING 166
SWIDTH 600 0
DWIDTH 9 0
BBX 9 12 0 0
BITMAP
0180
0600
0000
1D00
3300
2200
2000
1C00
0200
4200
C600
BC00
ENDCHAR
STARTCHAR section
ENCODING 167
SWIDTH 600 0
DWIDTH 9 0
BBX 8 10 1 -1
BITMAP
1F
21
78
4C
66
32
1E
04
84
F8
ENDCHAR
STARTCHAR dieresis
ENCODING 168
SWIDTH 600 0
DWIDTH 9 0
BBX 4 1 3 8
BITMAP
90
ENDCHAR
STARTCHAR Scaron
ENCODING 169
SWIDTH 600 0
DWIDTH 9 0
BBX 8 12 0 0
BITMAP
0A
0C
00
1D
33
22
20
1C
02
C2
C6
BC
ENDCHAR
STARTCHAR Scedilla
ENCODING 170
SWIDTH 600 0
DWIDTH 9 0
BBX 8 12 0 -3
BITMAP
1D
33
22
20
1C
02
42
C6
BC
30
10
E0
ENDCHAR
STARTCHAR Tcaron
ENCODING 171
SWIDTH 600 0
DWIDTH 9 0
BBX 9 12 1 0
BITMAP
0A00
0C00
0000
7F80
4880
8900
9100
1000
1000
2000
2000
F800
ENDCHAR
STARTCHAR Zacute
ENCODING 172
SWIDTH 600 0
DWIDTH 9 0
BBX 8 12 1 0
BITMAP
03
0C
00
3E
42
44
08
10
20
44
84
F8
ENDCHAR
STARTCHAR hyphen
ENCODING 173
SWIDTH 600 0
DWIDTH 9 0
BBX 6 1 1 4
BITMAP
FC
ENDCHAR
STARTCHAR Zcaron
ENCODING 174
SWIDTH 600 0
DWIDTH 9 0
BBX 7 12 1 0
BITMAP
14
18
00
3E
42
44
08
10
20
44
84
F8
ENDCHAR
STARTCHAR Zdotaccent
ENCODING 175
SWIDTH 600 0
DWIDTH 9 0
BBX 7 11 1 0
BITMAP
08
00
3E
42
44
08
10
20
44
84
F8
ENDCHAR
STARTCHAR degree
ENCODING 176
SWIDTH 600 0
DWIDTH 9 0
BBX 4 4 3 6
BITMAP
70
90
90
E0
ENDCHAR
STARTCHAR aogonek
ENCODING 177
SWIDTH 600 0
DWIDTH 9 0
BBX 7 10 1 -3
BITMAP
38
44
04
78
88
88
74
04
08
0E
ENDCHAR
STARTCHAR ogonek
ENCODING 178
SWIDTH 600 0
DWIDTH 9 0
BBX 3 3 3 -2
BITMAP
40
80
E0
ENDCHAR
STARTCHAR lslash
ENCODING 179
SWIDTH 600 0
DWIDTH 9 0
BBX 6 9 1 0
BITMAP
38
08
08
10
1C
70
20
20
FC
ENDCHAR
STARTCHAR acute
ENCODING 180
SWIDTH 600 0
DWIDTH 9 0
BBX 4 2 3 7
BITMAP
30
C0
ENDCHAR
STARTCHAR lcaron
ENCODING 181
SWIDTH 600 0
DWIDTH 9 0
BBX 7 10 1 0
BITMAP
3A
0A
0C
14
10
10
10
20
20
FC
ENDCHAR
STARTCHAR sacute
ENCODING 182
SWIDTH 600 0
DWIDTH 9 0
BBX 8 10 0 0
BITMAP
03
0C
00
1E
22
20
18
04
84
F8
ENDCHAR
STARTCHAR caron
ENCODING 183
SWIDTH 600 0
DWIDTH 9 0
BBX 3 2 3 7
BITMAP
A0
C0
ENDCHAR
STARTCHAR cedilla
ENCODING 184
SWIDTH 600 0
DWIDTH 9 0
BBX 4 4 2 -3
BITMAP
20
30
10
E0
ENDCHAR
STARTCHAR scaron
ENCODING 185
SWIDTH 600 0
DWIDTH 9 0
BBX 7 10 0 0
BITMAP
0A
0C
00
1E
22
20
18
04
84
F8
ENDCHAR
STARTCHAR scedilla
ENCODING 186
SWIDTH 600 0
DWIDTH 9 0
BBX 7 10 0 -3
BITMAP
1E
22
20
18
04
84
F8
20
10
E0
ENDCHAR
STARTCHAR tcaron
ENCODING 187
SWIDTH 600 0
DWIDTH 9 0
BBX 7 9 1 0
BITMAP
12
12
FE
24
20
40
40
44
38
ENDCHAR
STARTCHAR zacute
ENCODING 188
SWIDTH 600 0
DWIDTH 9 0
BBX 7 10 1 0
BITMAP
06
18
00
7E
44
08
10
20
44
FC
ENDCHAR
STARTCHAR hungarumlaut
ENCODING 189
SWIDTH 600 0
DWIDTH 9 0
BBX 5 2 2 7
BITMAP
48
90
ENDCHAR
STARTCHAR zcaron
ENCODING 190
SWIDTH 600 0
DWIDTH 9 0
BBX 7 10 1 0
BITMAP
14
18
00
7E
44
08
10
20
44
FC
ENDCHAR
STARTCHAR zdotaccent
ENCODING 191
SWIDTH 600 0
DWIDTH 9 0
BBX 7 9 1 0
BITMAP
08
00
7E
44
08
10
20
44
FC
ENDCHAR
STARTCHAR Racute
ENCODING 192
SWIDTH 600 0
DWIDTH 9 0
BBX 8 12 0 0
BITMAP
03
0C
00
3E
11
11
21
22
3C
44
42
F3
ENDCHAR
STARTCHAR Aacute
ENCODING 193
SWIDTH 600 0
DWIDTH 9 0
BBX 8 12 0 0
BITMAP
03
0C
00
1E
06
0A
0A
12
3E
22
42
EF
ENDCHAR
STARTCHAR Acircumflex
ENCODING 194
SWIDTH 600 0
DWIDTH 9 0
BBX 8 12 0 0
BITMAP
06
0A
00
1E
06
0A
0A
12
3E
22
42
EF
ENDCHAR
STARTCHAR Abreve
ENCODING 195
SWIDTH 600 0
DWIDTH 9 0
BBX 8 12 0 0
BITMAP
09
0E
00
1E
06
0A
0A
12
3E
22
42
EF
ENDCHAR
STARTCHAR Adieresis
ENCODING 196
SWIDTH 600 0
DWIDTH 9 0
BBX 8 11 0 0
BITMAP
0A
00
1E
06
0A
0A
12
3E
22
42
EF
ENDCHAR
STARTCHAR Lacute
ENCODING 197
SWIDTH 600 0
DWIDTH 9 0
BBX 8 12 0 0
BITMAP
03
0C
00
3E
08
08
10
10
11
21
22
FE
ENDCHAR
STARTCHAR Cacute
ENCODING 198
SWIDTH 600 0
DWIDTH 9 0
BBX 8 12 1 0
BITMAP
03
0C
00
1E
62
42
80
80
80
84
CC
70
ENDCHAR
STARTCHAR Ccedilla
ENCODING 199
SWIDTH 600 0
DWIDTH 9 0
BBX 8 12 0 -3
BITMAP
0F
33
21
40
40
40
42
66
38
30
10
E0
ENDCHAR
STARTCHAR Ccaron
ENCODING 200
SWIDTH 600 0
DWIDTH 9 0
BBX 7 12 1 0
BITMAP
0A
0C
00
1E
62
42
80
80
80
84
CC
70
ENDCHAR
STARTCHAR Eacute
ENCODING 201
SWIDTH 600 0
DWIDTH 9 0
BBX 9 12 0 0
BITMAP
0300
0C00
0000
3F80
1100
1100
2400
3C00
2400
4100
4200
FE00
ENDCHAR
STARTCHAR Eogonek
ENCODING 202
SWIDTH 600 0
DWIDTH 9 0
BBX 9 12 0 -3
BITMAP
3F80
1100
1100
2400
3C00
2400
4100
4200
FE00
0400
0800
0E00
ENDCHAR
STARTCHAR Edieresis
ENCODING 203
SWIDTH 600 0
DWIDTH 9 0
BBX 9 11 0 0
BITMAP
0900
0000
3F80
1080
1080
2400
3C00
2400
4100
4200
FE00
ENDCHAR
STARTCHAR Ecaron
ENCODING 204
SWIDTH 600 0
DWIDTH 9 0
BBX 9 12 0 0
BITMAP
0500
0600
0000
3F80
1100
1100
2400
3C00
2400
4100
4200
FE00
ENDCHAR
STARTCHAR Iacute
ENCODING 205
SWIDTH 600 0
DWIDTH 9 0
BBX 7 12 1 0
BITMAP
06
18
00
3E
08
08
10
10
10
20
20
F8
ENDCHAR
STARTCHAR Icircumflex
ENCODING 206
SWIDTH 600 0
DWIDTH 9 0
BBX 7 12 1 0
BITMAP
06
0A
00
3E
08
08
10
10
10
20
20
F8
ENDCHAR
STARTCHAR Dcaron
ENCODING 207
SWIDTH 600 0
DWIDTH 9 0
BBX 8 12 0 0
BITMAP
0A
0C
00
3E
13
11
21
21
21
42
46
F8
ENDCHAR
STARTCHAR Eth
ENCODING 208
SWIDTH 600 0
DWIDTH 9 0
BBX 8 9 0 0
BITMAP
3E
13
11
21
79
21
42
46
F8
ENDCHAR
STARTCHAR Nacute
ENCODING 209
SWIDTH 600 0
DWIDTH 9 0
BBX 10 12 0 0
BITMAP
0180
0600
0000
71C0
1080
1080
2900
2900
2500
4500
4200
F200
ENDCHAR
STARTCHAR Ncaron
ENCODING 210
SWIDTH 600 0
DWIDTH 9 0
BBX 10 12 0 0
BITMAP
0280
0300
0000
71C0
1080
1080
2900
2900
2500
4500
4200
F200
ENDCHAR
STARTCHAR Oacute
ENCODING 211
SWIDTH 600 0
DWIDTH 9 0
BBX 7 12 1 0
BITMAP
06
18
00
1C
66
42
82
82
82
84
CC
70
ENDCHAR
STARTCHAR Ocircumflex
ENCODING 212
SWIDTH 600 0
DWIDTH 9 0
BBX 7 12 1 0
BITMAP
0C
14
00
1C
66
42
82
82
82
84
CC
70
ENDCHAR
STARTCHAR Ohungarumlaut
ENCODING 213
SWIDTH 600 0
DWIDTH 9 0
BBX 8 12 1 0
BITMAP
09
12
00
1C
66
42
82
82
82
84
CC
70
ENDCHAR
STARTCHAR Odieresis
ENCODING 214
SWIDTH 600 0
DWIDTH 9 0
BBX 7 11 1 0
BITMAP
12
00
1C
66
42
82
82
82
84
CC
70
ENDCHAR
STARTCHAR multiply
ENCODING 215
SWIDTH 600 0
DWIDTH 9 0
BBX 8 7 1 1
BITMAP
41
22
14
18
28
44
82
ENDCHAR
STARTCHAR Rcaron
ENCODING 216
SWIDTH 600 0
DWIDTH 9 0
BBX 8 12 0 0
BITMAP
0A
0C
00
3E
11
11
21
22
3C
44
42
F3
ENDCHAR
STARTCHAR Uring
ENCODING 217
SWIDTH 600 0
DWIDTH 9 0
BBX 8 12 1 0
BITMAP
06
0A
0C
77
22
22
44
44
44
88
88
70
ENDCHAR
STARTCHAR Uacute
ENCODING 218
SWIDTH 600 0
DWIDTH 9 0
BBX 8 12 1 0
BITMAP
06
18
00
77
22
22
44
44
44
88
88
70
ENDCHAR
STARTCHAR Uhungarumlaut
ENCODING 219
SWIDTH 600 0
DWIDTH 9 0
BBX 8 12 1 0
BITMAP
09
12
00
77
22
22
44
44
44
88
88
70
ENDCHAR
STARTCHAR Udieresis
ENCODING 220
SWIDTH 600 0
DWIDTH 9 0
BBX 8 11 1 0
BITMAP
12
00
77
22
22
44
44
44
88
88
70
ENDCHAR
STARTCHAR Yacute
ENCODING 221
SWIDTH 600 0
DWIDTH 9 0
BBX 8 12 1 0
BITMAP
06
18
00
77
22
24
28
10
10
20
20
F8
ENDCHAR
STARTCHAR Tcedilla
ENCODING 222
SWIDTH 600 0
DWIDTH 9 0
BBX 9 12 1 -3
BITMAP
7F80
4880
8900
9100
1000
1000
2000
2000
F800
3000
1000
E000
ENDCHAR
STARTCHAR germandbls
ENCODING 223
SWIDTH 600 0
DWIDTH 9 0
BBX 8 9 0 0
BITMAP
0E
11
11
26
22
21
41
52
EC
ENDCHAR
STARTCHAR racute
ENCODING 224
SWIDTH 600 0
DWIDTH 9 0
BBX 8 10 0 0
BITMAP
03
0C
00
37
18
10
10
20
20
FC
ENDCHAR
STARTCHAR aacute
ENCODING 225
SWIDTH 600 0
DWIDTH 9 0
BBX 6 10 1 0
BITMAP
0C
30
00
38
44
04
78
88
88
74
ENDCHAR
STARTCHAR acircumflex
ENCODING 226
SWIDTH 600 0
DWIDTH 9 0
BBX 6 10 1 0
BITMAP
0C
14
00
38
44
04
78
88
88
74
ENDCHAR
STARTCHAR abreve
ENCODING 227
SWIDTH 600 0
DWIDTH 9 0
BBX 7 10 1 0
BITMAP
12
1C
00
38
44
04
78
88
88
74
ENDCHAR
STARTCHAR adieresis
ENCODING 228
SWIDTH 600 0
DWIDTH 9 0
BBX 6 9 1 0
BITMAP
24
00
38
44
04
78
88
88
74
ENDCHAR
STARTCHAR lacute
ENCODING 229
SWIDTH 600 0
DWIDTH 9 0
BBX 7 12 1 0
BITMAP
06
18
38
08
08
10
10
10
10
20
20
FC
ENDCHAR
STARTCHAR cacute
ENCODING 230
SWIDTH 600 0
DWIDTH 9 0
BBX 8 10 1 0
BITMAP
03
0C
00
1E
62
42
80
80
8C
70
ENDCHAR
STARTCHAR ccedilla
ENCODING 231
SWIDTH 600 0
DWIDTH 9 0
BBX 8 10 0 -3
BITMAP
0F
31
21
40
40
46
38
20
10
E0
ENDCHAR
STARTCHAR ccaron
ENCODING 232
SWIDTH 600 0
DWIDTH 9 0
BBX 7 10 1 0
BITMAP
0A
0C
00
1E
62
42
80
80
8C
70
ENDCHAR
STARTCHAR eacute
ENCODING 233
SWIDTH 600 0
DWIDTH 9 0
BBX 7 10 1 0
BITMAP
06
18
00
1C
62
42
FE
80
8C
70
ENDCHAR
STARTCHAR eogonek
ENCODING 234
SWIDTH 600 0
DWIDTH 9 0
BBX 7 10 1 -3
BITMAP
1C
62
42
FE
80
8C
70
10
20
38
ENDCHAR
STARTCHAR edieresis
ENCODING 235
SWIDTH 600 0
DWIDTH 9 0
BBX 7 9 1 0
BITMAP
12
00
1C
62
42
FE
80
8C
70
ENDCHAR
STARTCHAR ecaron
ENCODING 236
SWIDTH 600 0
DWIDTH 9 0
BBX 7 10 1 0
BITMAP
0A
0C
00
1C
62
42
FE
80
8C
70
ENDCHAR
STARTCHAR iacute
ENCODING 237
SWIDTH 600 0
DWIDTH 9 0
BBX 6 10 2 0
BITMAP
0C
30
00
70
10
10
20
20
20
F8
ENDCHAR
STARTCHAR icircumflex
ENCODING 238
SWIDTH 600 0
DWIDTH 9 0
BBX 5 10 2 0
BITMAP
18
28
00
70
10
10
20
20
20
F8
ENDCHAR
STARTCHAR dcaron
ENCODING 239
SWIDTH 600 0
DWIDTH 9 0
BBX 8 10 1 0
BITMAP
07
03
02
36
4C
84
84
88
98
6C
ENDCHAR
STARTCHAR dmacron
ENCODING 240
SWIDTH 600 0
DWIDTH 9 0
BBX 8 10 1 0
BITMAP
02
1F
02
34
4C
84
84
88
98
6C
ENDCHAR
STARTCHAR nacute
ENCODING 241
SWIDTH 600 0
DWIDTH 9 0
BBX 8 10 0 0
BITMAP
03
0C
00
6E
31
21
21
42
42
E7
ENDCHAR
STARTCHAR ncaron
ENCODING 242
SWIDTH 600 0
DWIDTH 9 0
BBX 8 10 0 0
BITMAP
0A
0C
00
6E
31
21
21
42
42
E7
ENDCHAR
STARTCHAR oacute
ENCODING 243
SWIDTH 600 0
DWIDTH 9 0
BBX 7 10 1 0
BITMAP
06
18
00
1C
62
42
82
84
8C
70
ENDCHAR
STARTCHAR ocircumflex
ENCODING 244
SWIDTH 600 0
DWIDTH 9 0
BBX 7 10 1 0
BITMAP
06
0A
00
1C
62
42
82
84
8C
70
ENDCHAR
STARTCHAR ohungarumlaut
ENCODING 245
SWIDTH 600 0
DWIDTH 9 0
BBX 8 10 1 0
BITMAP
09
12
00
1C
62
42
82
84
8C
70
ENDCHAR
STARTCHAR odieresis
ENCODING 246
SWIDTH 600 0
DWIDTH 9 0
BBX 7 9 1 0
BITMAP
12
00
1C
62
42
82
84
8C
70
ENDCHAR
STARTCHAR divide
ENCODING 247
SWIDTH 600 0
DWIDTH 9 0
BBX 6 7 2 1
BITMAP
10
10
00
FC
00
20
20
ENDCHAR
STARTCHAR rcaron
ENCODING 248
SWIDTH 600 0
DWIDTH 9 0
BBX 8 10 0 0
BITMAP
05
06
00
37
18
10
10
20
20
FC
ENDCHAR
STARTCHAR uring
ENCODING 249
SWIDTH 600 0
DWIDTH 9 0
BBX 6 11 1 0
BITMAP
0C
14
18
00
CC
44
44
88
88
98
6C
ENDCHAR
STARTCHAR uacute
ENCODING 250
SWIDTH 600 0
DWIDTH 9 0
BBX 6 10 1 0
BITMAP
0C
30
00
CC
44
44
88
88
98
6C
ENDCHAR
STARTCHAR uhungarumlaut
ENCODING 251
SWIDTH 600 0
DWIDTH 9 0
BBX 7 10 1 0
BITMAP
12
24
00
CC
44
44
88
88
98
6C
ENDCHAR
STARTCHAR udieresis
ENCODING 252
SWIDTH 600 0
DWIDTH 9 0
BBX 6 9 1 0
BITMAP
48
00
CC
44
44
88
88
98
6C
ENDCHAR
STARTCHAR yacute
ENCODING 253
SWIDTH 600 0
DWIDTH 9 0
BBX 9 13 0 -3
BITMAP
0300
0C00
0000
7380
2100
2200
1400
1400
0800
1000
1000
2000
F000
ENDCHAR
STARTCHAR tcedilla
ENCODING 254
SWIDTH 600 0
DWIDTH 9 0
BBX 7 12 1 -3
BITMAP
10
10
FE
20
20
40
40
44
38
18
08
70
ENDCHAR
STARTCHAR dotaccent
ENCODING 255
SWIDTH 600 0
DWIDTH 9 0
BBX 1 1 4 8
BITMAP
80
ENDCHAR
ENDFONT
